<svg width="16" height="15" viewBox="0 0 16 15" fill="none" xmlns="http://www.w3.org/2000/svg">
<path d="M4.73959 0.000117955C5.21505 0.0147301 5.67542 0.0986214 6.12146 0.251914H6.16599C6.19617 0.266404 6.21881 0.28242 6.23391 0.29691C6.4007 0.351058 6.55843 0.41207 6.70938 0.495961L6.99617 0.625612C7.10937 0.686624 7.24522 0.800258 7.32069 0.84678C7.39616 0.891776 7.47918 0.938298 7.5471 0.99092C8.38558 0.343432 9.40369 -0.00738676 10.4527 0.000117955C10.929 0.000117955 11.4044 0.0681155 11.8565 0.221408C14.6421 1.13659 15.6459 4.22531 14.8074 6.92509C14.3319 8.30472 13.5546 9.56386 12.5365 10.5927C11.0791 12.0188 9.47991 13.2848 7.75842 14.3754L7.56975 14.4906L7.37352 14.3678C5.64599 13.2848 4.03771 12.0188 2.56678 10.585C1.55547 9.55623 0.777363 8.30472 0.294349 6.92509C-0.558472 4.22531 0.445291 1.13659 3.26111 0.205392C3.47998 0.129127 3.70563 0.075742 3.93205 0.0459987H4.02261C4.23468 0.0147301 4.44525 0.000117955 4.65657 0.000117955H4.73959Z" fill="#29367C"/>
<path d="M4.73959 0.000117955C5.21505 0.0147301 5.67542 0.0986214 6.12146 0.251914H6.16599C6.19617 0.266404 6.21881 0.28242 6.23391 0.29691C6.4007 0.351058 6.55843 0.41207 6.70938 0.495961L6.99617 0.625612C7.10937 0.686624 7.24522 0.800258 7.32069 0.84678C7.39616 0.891776 7.47918 0.938298 7.5471 0.99092C8.38558 0.343432 9.40369 -0.00738676 10.4527 0.000117955C10.929 0.000117955 11.4044 0.0681155 11.8565 0.221408C14.6421 1.13659 15.6459 4.22531 14.8074 6.92509C14.3319 8.30472 13.5546 9.56386 12.5365 10.5927C11.0791 12.0188 9.47991 13.2848 7.75842 14.3754L7.56975 14.4906L7.37352 14.3678C5.64599 13.2848 4.03771 12.0188 2.56678 10.585C1.55547 9.55623 0.777363 8.30472 0.294349 6.92509C-0.558472 4.22531 0.445291 1.13659 3.26111 0.205392C3.47998 0.129127 3.70563 0.075742 3.93205 0.0459987H4.02261C4.23468 0.0147301 4.44525 0.000117955 4.65657 0.000117955H4.73959Z" fill="black" fill-opacity="0.3"/>
</svg>
