<svg width="25" height="25" viewBox="0 0 25 25" fill="none" xmlns="http://www.w3.org/2000/svg">
<path d="M12.3496 5.23774e-07C10.1957 0.000351614 8.07945 0.563897 6.21069 1.63471C4.34194 2.70553 2.78567 4.2464 1.69632 6.10442C0.606966 7.96243 0.0224025 10.073 0.000631197 12.2267C-0.0211401 14.3804 0.520638 16.5024 1.57221 18.382L0.506581 22.0996C0.419563 22.3906 0.412884 22.6996 0.487251 22.9941C0.561619 23.2885 0.714262 23.5574 0.929003 23.7721C1.14374 23.9869 1.41258 24.1395 1.70703 24.2139C2.00147 24.2882 2.31055 24.2815 2.6015 24.1945L6.31908 23.1289C7.96632 24.0512 9.80305 24.5836 11.6882 24.6852C13.5733 24.7868 15.4566 24.455 17.1934 23.7152C18.9303 22.9754 20.4744 21.8473 21.7073 20.4176C22.9401 18.9879 23.8288 17.2946 24.3051 15.4678C24.7814 13.6411 24.8326 11.7294 24.4549 9.87976C24.0771 8.0301 23.2803 6.29166 22.1258 4.79798C20.9713 3.3043 19.4897 2.09515 17.795 1.2634C16.1002 0.431651 14.2374 -0.000549215 12.3496 5.23774e-07ZM12.3496 23.25C10.3935 23.2494 8.47358 22.7224 6.79135 21.7242C6.67571 21.6625 6.54701 21.6293 6.41596 21.6273C6.35043 21.6234 6.28475 21.6316 6.22221 21.6516L2.20189 22.802C2.15981 22.8149 2.115 22.8162 2.07227 22.8055C2.02953 22.7949 1.9905 22.7729 1.95937 22.7417C1.92824 22.7106 1.90618 22.6716 1.89557 22.6288C1.88496 22.5861 1.8862 22.5413 1.89916 22.4992L3.04955 18.4789C3.07671 18.3841 3.08427 18.2847 3.07178 18.1869C3.05929 18.089 3.027 17.9947 2.97689 17.9098C1.75054 15.8414 1.24268 13.4255 1.53241 11.0384C1.82214 8.65132 2.8932 6.42707 4.57875 4.71212C6.2643 2.99717 8.4697 1.88781 10.8514 1.55685C13.2331 1.22589 15.6575 1.6919 17.7467 2.8823C19.836 4.0727 21.4729 5.92065 22.4025 8.1383C23.3321 10.3559 23.5022 12.8188 22.8863 15.1432C22.2704 17.4675 20.903 19.523 18.9972 20.9893C17.0914 22.4556 14.7542 23.2504 12.3496 23.25ZM18.5859 14.3859L16.1035 12.9691C15.8422 12.8217 15.5464 12.7463 15.2465 12.7506C14.9465 12.7548 14.653 12.8386 14.396 12.9934L12.846 13.9258C11.9651 13.457 11.2441 12.736 10.7753 11.8551L11.7078 10.3051C11.8625 10.0481 11.9463 9.75461 11.9505 9.45464C11.9548 9.15467 11.8794 8.85895 11.732 8.59766L10.3152 6.11523C10.1776 5.87696 9.98 5.6789 9.74203 5.54079C9.50406 5.40269 9.23406 5.32936 8.95893 5.32813C7.86907 5.32812 6.82368 5.76023 6.05191 6.52974C5.28013 7.29924 4.84494 8.34336 4.84174 9.4332C4.84015 10.8018 5.10834 12.1573 5.63098 13.4222C6.15363 14.6871 6.92047 15.8366 7.88766 16.8049C8.85485 17.7732 10.0034 18.5414 11.2677 19.0655C12.532 19.5896 13.8872 19.8594 15.2558 19.8594H15.2679C16.3578 19.8562 17.4019 19.421 18.1714 18.6492C18.9409 17.8774 19.373 16.832 19.373 15.7422C19.3718 15.4671 19.2984 15.197 19.1603 14.9591C19.0222 14.7211 18.8242 14.5235 18.5859 14.3859ZM15.2679 18.4062H15.2558C12.8781 18.403 10.5989 17.4563 8.91872 15.7738C7.23857 14.0914 6.29486 11.8109 6.29486 9.4332C6.29806 8.72875 6.58015 8.05424 7.07942 7.55725C7.57868 7.06026 8.25447 6.78124 8.95893 6.78125C8.99625 6.78431 9.03096 6.80166 9.0558 6.82969L10.4726 9.31211C10.492 9.34998 10.5012 9.39231 10.499 9.43483C10.4969 9.47735 10.4836 9.51856 10.4605 9.5543L9.33432 11.4555C9.27055 11.5533 9.23267 11.6657 9.22419 11.7822C9.21572 11.8987 9.23695 12.0154 9.28588 12.1215C9.94789 13.5826 11.1185 14.7532 12.5796 15.4152C12.6857 15.4642 12.8024 15.4854 12.9189 15.4769C13.0354 15.4684 13.1478 15.4306 13.2456 15.3668L15.1468 14.2406C15.1826 14.2175 15.2238 14.2042 15.2663 14.2021C15.3088 14.2 15.3511 14.2091 15.389 14.2285L17.8714 15.6453C17.8995 15.6702 17.9168 15.7049 17.9199 15.7422C17.9199 16.4466 17.6409 17.1224 17.1439 17.6217C16.6469 18.121 15.9724 18.403 15.2679 18.4062Z" fill="#29367C"/>
<path d="M12.3496 5.23774e-07C10.1957 0.000351614 8.07945 0.563897 6.21069 1.63471C4.34194 2.70553 2.78567 4.2464 1.69632 6.10442C0.606966 7.96243 0.0224025 10.073 0.000631197 12.2267C-0.0211401 14.3804 0.520638 16.5024 1.57221 18.382L0.506581 22.0996C0.419563 22.3906 0.412884 22.6996 0.487251 22.9941C0.561619 23.2885 0.714262 23.5574 0.929003 23.7721C1.14374 23.9869 1.41258 24.1395 1.70703 24.2139C2.00147 24.2882 2.31055 24.2815 2.6015 24.1945L6.31908 23.1289C7.96632 24.0512 9.80305 24.5836 11.6882 24.6852C13.5733 24.7868 15.4566 24.455 17.1934 23.7152C18.9303 22.9754 20.4744 21.8473 21.7073 20.4176C22.9401 18.9879 23.8288 17.2946 24.3051 15.4678C24.7814 13.6411 24.8326 11.7294 24.4549 9.87976C24.0771 8.0301 23.2803 6.29166 22.1258 4.79798C20.9713 3.3043 19.4897 2.09515 17.795 1.2634C16.1002 0.431651 14.2374 -0.000549215 12.3496 5.23774e-07ZM12.3496 23.25C10.3935 23.2494 8.47358 22.7224 6.79135 21.7242C6.67571 21.6625 6.54701 21.6293 6.41596 21.6273C6.35043 21.6234 6.28475 21.6316 6.22221 21.6516L2.20189 22.802C2.15981 22.8149 2.115 22.8162 2.07227 22.8055C2.02953 22.7949 1.9905 22.7729 1.95937 22.7417C1.92824 22.7106 1.90618 22.6716 1.89557 22.6288C1.88496 22.5861 1.8862 22.5413 1.89916 22.4992L3.04955 18.4789C3.07671 18.3841 3.08427 18.2847 3.07178 18.1869C3.05929 18.089 3.027 17.9947 2.97689 17.9098C1.75054 15.8414 1.24268 13.4255 1.53241 11.0384C1.82214 8.65132 2.8932 6.42707 4.57875 4.71212C6.2643 2.99717 8.4697 1.88781 10.8514 1.55685C13.2331 1.22589 15.6575 1.6919 17.7467 2.8823C19.836 4.0727 21.4729 5.92065 22.4025 8.1383C23.3321 10.3559 23.5022 12.8188 22.8863 15.1432C22.2704 17.4675 20.903 19.523 18.9972 20.9893C17.0914 22.4556 14.7542 23.2504 12.3496 23.25ZM18.5859 14.3859L16.1035 12.9691C15.8422 12.8217 15.5464 12.7463 15.2465 12.7506C14.9465 12.7548 14.653 12.8386 14.396 12.9934L12.846 13.9258C11.9651 13.457 11.2441 12.736 10.7753 11.8551L11.7078 10.3051C11.8625 10.0481 11.9463 9.75461 11.9505 9.45464C11.9548 9.15467 11.8794 8.85895 11.732 8.59766L10.3152 6.11523C10.1776 5.87696 9.98 5.6789 9.74203 5.54079C9.50406 5.40269 9.23406 5.32936 8.95893 5.32813C7.86907 5.32812 6.82368 5.76023 6.05191 6.52974C5.28013 7.29924 4.84494 8.34336 4.84174 9.4332C4.84015 10.8018 5.10834 12.1573 5.63098 13.4222C6.15363 14.6871 6.92047 15.8366 7.88766 16.8049C8.85485 17.7732 10.0034 18.5414 11.2677 19.0655C12.532 19.5896 13.8872 19.8594 15.2558 19.8594H15.2679C16.3578 19.8562 17.4019 19.421 18.1714 18.6492C18.9409 17.8774 19.373 16.832 19.373 15.7422C19.3718 15.4671 19.2984 15.197 19.1603 14.9591C19.0222 14.7211 18.8242 14.5235 18.5859 14.3859ZM15.2679 18.4062H15.2558C12.8781 18.403 10.5989 17.4563 8.91872 15.7738C7.23857 14.0914 6.29486 11.8109 6.29486 9.4332C6.29806 8.72875 6.58015 8.05424 7.07942 7.55725C7.57868 7.06026 8.25447 6.78124 8.95893 6.78125C8.99625 6.78431 9.03096 6.80166 9.0558 6.82969L10.4726 9.31211C10.492 9.34998 10.5012 9.39231 10.499 9.43483C10.4969 9.47735 10.4836 9.51856 10.4605 9.5543L9.33432 11.4555C9.27055 11.5533 9.23267 11.6657 9.22419 11.7822C9.21572 11.8987 9.23695 12.0154 9.28588 12.1215C9.94789 13.5826 11.1185 14.7532 12.5796 15.4152C12.6857 15.4642 12.8024 15.4854 12.9189 15.4769C13.0354 15.4684 13.1478 15.4306 13.2456 15.3668L15.1468 14.2406C15.1826 14.2175 15.2238 14.2042 15.2663 14.2021C15.3088 14.2 15.3511 14.2091 15.389 14.2285L17.8714 15.6453C17.8995 15.6702 17.9168 15.7049 17.9199 15.7422C17.9199 16.4466 17.6409 17.1224 17.1439 17.6217C16.6469 18.121 15.9724 18.403 15.2679 18.4062Z" fill="white" fill-opacity="0.2"/>
</svg>
