<svg width="26" height="18" viewBox="0 0 26 18" fill="none" xmlns="http://www.w3.org/2000/svg">
<path d="M12.5172 12.5187C14.6193 12.5187 16.3234 10.8146 16.3234 8.71246C16.3234 6.61035 14.6193 4.90625 12.5172 4.90625C10.415 4.90625 8.71094 6.61035 8.71094 8.71246C8.71094 10.8146 10.415 12.5187 12.5172 12.5187Z" stroke="#29367C" stroke-width="2.2" stroke-linecap="round" stroke-linejoin="round"/>
<path d="M12.5172 12.5187C14.6193 12.5187 16.3234 10.8146 16.3234 8.71246C16.3234 6.61035 14.6193 4.90625 12.5172 4.90625C10.415 4.90625 8.71094 6.61035 8.71094 8.71246C8.71094 10.8146 10.415 12.5187 12.5172 12.5187Z" stroke="white" stroke-opacity="0.5" stroke-width="2.2" stroke-linecap="round" stroke-linejoin="round"/>
<path d="M21.4014 1.1001H3.63904C2.23763 1.1001 1.10156 2.23616 1.10156 3.63757V13.7875C1.10156 15.1889 2.23763 16.325 3.63904 16.325H21.4014C22.8028 16.325 23.9389 15.1889 23.9389 13.7875V3.63757C23.9389 2.23616 22.8028 1.1001 21.4014 1.1001Z" stroke="#29367C" stroke-width="2.2" stroke-linecap="round" stroke-linejoin="round"/>
<path d="M21.4014 1.1001H3.63904C2.23763 1.1001 1.10156 2.23616 1.10156 3.63757V13.7875C1.10156 15.1889 2.23763 16.325 3.63904 16.325H21.4014C22.8028 16.325 23.9389 15.1889 23.9389 13.7875V3.63757C23.9389 2.23616 22.8028 1.1001 21.4014 1.1001Z" stroke="white" stroke-opacity="0.5" stroke-width="2.2" stroke-linecap="round" stroke-linejoin="round"/>
<path d="M4.90625 8.7124H4.91894M20.1311 8.7124H20.1438H20.1311Z" stroke="#29367C" stroke-width="2.2" stroke-linecap="round" stroke-linejoin="round"/>
<path d="M4.90625 8.7124H4.91894M20.1311 8.7124H20.1438H20.1311Z" stroke="white" stroke-opacity="0.5" stroke-width="2.2" stroke-linecap="round" stroke-linejoin="round"/>
</svg>
