<svg width="21" height="21" viewBox="0 0 21 21" fill="none" xmlns="http://www.w3.org/2000/svg">
<path fill-rule="evenodd" clip-rule="evenodd" d="M2.41674 3.13601C2.41879 3.13601 2.36757 3.18928 2.30303 3.25279C2.05513 3.49353 1.5419 3.99446 1.53673 5.04243C1.52858 6.50835 2.49255 9.2302 7.13413 13.8707C11.7542 18.4888 14.4719 19.464 15.9409 19.464H15.9624C17.0104 19.4589 17.5103 18.9446 17.7521 18.6977C17.8258 18.6219 17.8853 18.5666 17.9273 18.5318C18.9476 17.5053 19.47 16.7411 19.4649 16.2515C19.4577 15.7516 18.8359 15.1605 17.9764 14.343C17.7029 14.0828 17.4058 13.8001 17.0924 13.4866C16.28 12.6763 15.8774 12.8146 14.9923 13.126C13.7682 13.5552 12.0881 14.1391 9.47796 11.5279C6.86368 8.9157 7.44862 7.23773 7.87682 6.01357C8.18619 5.12848 8.32756 4.72486 7.51418 3.91149C7.19559 3.59392 6.90978 3.29275 6.64651 3.01616C5.83416 2.1618 5.2482 1.54409 4.75136 1.53692H4.74317C4.25248 1.53692 3.49032 2.06141 2.41162 3.14011C2.41469 3.13704 2.41572 3.13601 2.41674 3.13601ZM15.942 21.0006C13.3891 21.0006 10.0609 18.9682 6.04826 14.9576C2.0203 10.9307 -0.0151943 7.59217 8.53867e-05 5.03423C0.00939138 3.34397 0.895501 2.47834 1.22843 2.15361C1.24585 2.1321 1.30526 2.0737 1.32575 2.05322C2.79475 0.583196 3.78535 -0.0109586 4.77082 0.000152777C5.91508 0.0156759 6.72949 0.872078 7.76004 1.95692C8.01511 2.22532 8.2917 2.51727 8.60005 2.82459C10.0957 4.32022 9.66953 5.54029 9.32738 6.51962C8.95449 7.58807 8.63181 8.51004 10.5638 10.4421C12.4979 12.3741 13.4199 12.0514 14.4842 11.6754C15.4646 11.3333 16.6816 10.9051 18.1793 12.4007C18.4825 12.704 18.7703 12.9775 19.0357 13.2305C20.1256 14.2662 20.9861 15.0847 21.0007 16.232C21.0128 17.2103 20.4186 18.2071 18.9517 19.675L18.3022 19.2345L18.8513 19.7713C18.5265 20.1043 17.6619 20.9914 15.9706 21.0006H15.942Z" fill="#29367C"/>
<path fill-rule="evenodd" clip-rule="evenodd" d="M2.41674 3.13601C2.41879 3.13601 2.36757 3.18928 2.30303 3.25279C2.05513 3.49353 1.5419 3.99446 1.53673 5.04243C1.52858 6.50835 2.49255 9.2302 7.13413 13.8707C11.7542 18.4888 14.4719 19.464 15.9409 19.464H15.9624C17.0104 19.4589 17.5103 18.9446 17.7521 18.6977C17.8258 18.6219 17.8853 18.5666 17.9273 18.5318C18.9476 17.5053 19.47 16.7411 19.4649 16.2515C19.4577 15.7516 18.8359 15.1605 17.9764 14.343C17.7029 14.0828 17.4058 13.8001 17.0924 13.4866C16.28 12.6763 15.8774 12.8146 14.9923 13.126C13.7682 13.5552 12.0881 14.1391 9.47796 11.5279C6.86368 8.9157 7.44862 7.23773 7.87682 6.01357C8.18619 5.12848 8.32756 4.72486 7.51418 3.91149C7.19559 3.59392 6.90978 3.29275 6.64651 3.01616C5.83416 2.1618 5.2482 1.54409 4.75136 1.53692H4.74317C4.25248 1.53692 3.49032 2.06141 2.41162 3.14011C2.41469 3.13704 2.41572 3.13601 2.41674 3.13601ZM15.942 21.0006C13.3891 21.0006 10.0609 18.9682 6.04826 14.9576C2.0203 10.9307 -0.0151943 7.59217 8.53867e-05 5.03423C0.00939138 3.34397 0.895501 2.47834 1.22843 2.15361C1.24585 2.1321 1.30526 2.0737 1.32575 2.05322C2.79475 0.583196 3.78535 -0.0109586 4.77082 0.000152777C5.91508 0.0156759 6.72949 0.872078 7.76004 1.95692C8.01511 2.22532 8.2917 2.51727 8.60005 2.82459C10.0957 4.32022 9.66953 5.54029 9.32738 6.51962C8.95449 7.58807 8.63181 8.51004 10.5638 10.4421C12.4979 12.3741 13.4199 12.0514 14.4842 11.6754C15.4646 11.3333 16.6816 10.9051 18.1793 12.4007C18.4825 12.704 18.7703 12.9775 19.0357 13.2305C20.1256 14.2662 20.9861 15.0847 21.0007 16.232C21.0128 17.2103 20.4186 18.2071 18.9517 19.675L18.3022 19.2345L18.8513 19.7713C18.5265 20.1043 17.6619 20.9914 15.9706 21.0006H15.942Z" fill="white" fill-opacity="0.2"/>
</svg>
