<svg width="31" height="24" viewBox="0 0 31 24" fill="none" xmlns="http://www.w3.org/2000/svg">
<path d="M2.06667 10.0007H5.16667V18.0003H3.1C2.82594 18.0003 2.56311 18.1056 2.36932 18.2932C2.17554 18.4807 2.06667 18.735 2.06667 19.0002C2.06667 19.2654 2.17554 19.5198 2.36932 19.7073C2.56311 19.8948 2.82594 20.0002 3.1 20.0002H27.9C28.1741 20.0002 28.4369 19.8948 28.6307 19.7073C28.8245 19.5198 28.9333 19.2654 28.9333 19.0002C28.9333 18.735 28.8245 18.4807 28.6307 18.2932C28.4369 18.1056 28.1741 18.0003 27.9 18.0003H25.8333V10.0007H28.9333C29.1579 10.0003 29.3762 9.9291 29.5552 9.79794C29.7343 9.66677 29.8643 9.48274 29.9256 9.27369C29.9869 9.06465 29.9761 8.84196 29.895 8.63935C29.8139 8.43673 29.6667 8.26521 29.4758 8.15074L16.0425 0.151113C15.8799 0.0523756 15.6919 0 15.5 0C15.3081 0 15.1201 0.0523756 14.9575 0.151113L1.52417 8.15074C1.33329 8.26521 1.18615 8.43673 1.105 8.63935C1.02386 8.84196 1.01312 9.06465 1.07443 9.27369C1.13573 9.48274 1.26574 9.66677 1.44477 9.79794C1.6238 9.9291 1.84211 10.0003 2.06667 10.0007ZM7.23333 10.0007H11.3667V18.0003H7.23333V10.0007ZM17.5667 10.0007V18.0003H13.4333V10.0007H17.5667ZM23.7667 18.0003H19.6333V10.0007H23.7667V18.0003ZM15.5 2.17602L25.2779 8.00075H5.72208L15.5 2.17602ZM31 23C31 23.2653 30.8911 23.5196 30.6973 23.7071C30.5036 23.8946 30.2407 24 29.9667 24H1.03333C0.759276 24 0.496444 23.8946 0.302656 23.7071C0.108869 23.5196 0 23.2653 0 23C0 22.7348 0.108869 22.4805 0.302656 22.293C0.496444 22.1054 0.759276 22.0001 1.03333 22.0001H29.9667C30.2407 22.0001 30.5036 22.1054 30.6973 22.293C30.8911 22.4805 31 22.7348 31 23Z" fill="#29367C"/>
<path d="M2.06667 10.0007H5.16667V18.0003H3.1C2.82594 18.0003 2.56311 18.1056 2.36932 18.2932C2.17554 18.4807 2.06667 18.735 2.06667 19.0002C2.06667 19.2654 2.17554 19.5198 2.36932 19.7073C2.56311 19.8948 2.82594 20.0002 3.1 20.0002H27.9C28.1741 20.0002 28.4369 19.8948 28.6307 19.7073C28.8245 19.5198 28.9333 19.2654 28.9333 19.0002C28.9333 18.735 28.8245 18.4807 28.6307 18.2932C28.4369 18.1056 28.1741 18.0003 27.9 18.0003H25.8333V10.0007H28.9333C29.1579 10.0003 29.3762 9.9291 29.5552 9.79794C29.7343 9.66677 29.8643 9.48274 29.9256 9.27369C29.9869 9.06465 29.9761 8.84196 29.895 8.63935C29.8139 8.43673 29.6667 8.26521 29.4758 8.15074L16.0425 0.151113C15.8799 0.0523756 15.6919 0 15.5 0C15.3081 0 15.1201 0.0523756 14.9575 0.151113L1.52417 8.15074C1.33329 8.26521 1.18615 8.43673 1.105 8.63935C1.02386 8.84196 1.01312 9.06465 1.07443 9.27369C1.13573 9.48274 1.26574 9.66677 1.44477 9.79794C1.6238 9.9291 1.84211 10.0003 2.06667 10.0007ZM7.23333 10.0007H11.3667V18.0003H7.23333V10.0007ZM17.5667 10.0007V18.0003H13.4333V10.0007H17.5667ZM23.7667 18.0003H19.6333V10.0007H23.7667V18.0003ZM15.5 2.17602L25.2779 8.00075H5.72208L15.5 2.17602ZM31 23C31 23.2653 30.8911 23.5196 30.6973 23.7071C30.5036 23.8946 30.2407 24 29.9667 24H1.03333C0.759276 24 0.496444 23.8946 0.302656 23.7071C0.108869 23.5196 0 23.2653 0 23C0 22.7348 0.108869 22.4805 0.302656 22.293C0.496444 22.1054 0.759276 22.0001 1.03333 22.0001H29.9667C30.2407 22.0001 30.5036 22.1054 30.6973 22.293C30.8911 22.4805 31 22.7348 31 23Z" fill="white" fill-opacity="0.5"/>
</svg>
