<svg width="27" height="27" viewBox="0 0 27 27" fill="none" xmlns="http://www.w3.org/2000/svg">
<path d="M23.0714 0.75H3.42857C2.71817 0.75 2.03686 1.03221 1.53454 1.53454C1.03221 2.03687 0.75 2.71817 0.75 3.42857L0.75 23.0714C0.75 23.7818 1.03221 24.4631 1.53454 24.9655C2.03686 25.4678 2.71817 25.75 3.42857 25.75H10.0876C10.6399 25.75 11.0876 25.3023 11.0876 24.75V18.2506C11.0876 17.6983 10.6399 17.2506 10.0876 17.2506H8.57199C8.0197 17.2506 7.57199 16.8028 7.57199 16.2506V14.25C7.57199 13.6977 8.0197 13.25 8.57199 13.25H10.0876C10.6399 13.25 11.0876 12.8023 11.0876 12.25V10.2009C11.0876 6.7327 13.1523 4.81696 16.3147 4.81696C17.1369 4.81696 17.9794 4.89656 18.5779 4.96933C19.0618 5.02815 19.4129 5.44353 19.4129 5.93095V7.49107C19.4129 8.04336 18.9652 8.49107 18.4129 8.49107H17.668C15.9487 8.49107 15.4124 9.55804 15.4124 10.6523V12.25C15.4124 12.8023 15.8601 13.25 16.4124 13.25H18.0854C18.6981 13.25 19.1668 13.796 19.0738 14.4017L18.7669 16.4022C18.692 16.8902 18.2722 17.2506 17.7785 17.2506H16.4124C15.8601 17.2506 15.4124 17.6983 15.4124 18.2506V24.75C15.4124 25.3023 15.8601 25.75 16.4124 25.75H23.0714C23.7818 25.75 24.4631 25.4678 24.9655 24.9655C25.4678 24.4631 25.75 23.7818 25.75 23.0714V3.42857C25.75 2.71817 25.4678 2.03687 24.9655 1.53454C24.4631 1.03221 23.7818 0.75 23.0714 0.75ZM23.0714 0.75L-nan -nanL-nan -nanL23.0714 0.75Z" stroke="#545E96" stroke-width="1.5"/>
</svg>
