<svg width="26" height="23" viewBox="0 0 26 23" fill="none" xmlns="http://www.w3.org/2000/svg">
<path d="M25.335 3.49614C25.2821 3.36855 25.1927 3.25937 25.0781 3.18226C24.9634 3.10515 24.8286 3.06351 24.6905 3.06255H20.9874C20.5297 2.22188 19.8564 1.51824 19.0367 1.02395C18.217 0.529655 17.2804 0.26254 16.3233 0.250051C14.8852 0.243799 13.5032 0.807497 12.4798 1.81778C11.4563 2.82805 10.8747 4.20263 10.8624 5.64068V6.66021C5.89361 5.47661 1.79205 1.43365 1.74518 1.39849C1.65483 1.3093 1.54203 1.24624 1.41874 1.216C1.29544 1.18575 1.16626 1.18945 1.0449 1.2267C0.92354 1.26395 0.814528 1.33336 0.729433 1.42756C0.644339 1.52177 0.586337 1.63726 0.561584 1.76177C-0.457948 7.3399 1.21783 11.0665 2.79986 13.211C3.63893 14.3593 4.66964 15.3543 5.84674 16.1524C4.03033 18.3555 1.04205 19.504 1.0069 19.5157C0.907054 19.5524 0.817043 19.6117 0.74387 19.689C0.670698 19.7662 0.616337 19.8593 0.585021 19.961C0.551768 20.0602 0.54187 20.1658 0.556098 20.2694C0.570327 20.3731 0.608298 20.4721 0.667052 20.5586C0.78424 20.7344 1.93268 22.2813 5.94049 22.2813C14.1085 22.2813 20.9405 15.9649 21.5967 7.85552L25.1827 4.25786C25.2843 4.16263 25.3536 4.03801 25.381 3.90143C25.4083 3.76485 25.3922 3.62314 25.335 3.49614ZM20.4131 7.04693C20.2912 7.16854 20.22 7.33188 20.2139 7.50396C19.7335 15.004 13.4639 20.8751 5.94049 20.8751C4.31158 20.8751 3.26862 20.5938 2.64752 20.3126C3.97174 19.6446 6.13971 18.3321 7.46393 16.3399C7.51668 16.2573 7.55218 16.1649 7.56829 16.0682C7.58441 15.9716 7.58079 15.8726 7.55768 15.7774C7.53269 15.6799 7.48742 15.5889 7.42482 15.5101C7.36222 15.4313 7.2837 15.3667 7.1944 15.3204C7.17096 15.3204 5.41315 14.4063 3.88971 12.3204C2.0733 9.83599 1.35846 6.80083 1.7569 3.29693C3.46783 4.75005 7.15924 7.49224 11.4483 8.20708C11.5493 8.22626 11.6532 8.22269 11.7526 8.19664C11.852 8.17059 11.9443 8.12271 12.0229 8.05649C12.1015 7.99027 12.1643 7.90737 12.2068 7.81381C12.2493 7.72026 12.2704 7.61841 12.2686 7.51568V5.64068C12.2779 4.5787 12.7071 3.56356 13.4624 2.817C14.2178 2.07045 15.2379 1.65316 16.2999 1.6563C17.0672 1.66738 17.8153 1.89855 18.4551 2.32233C19.0949 2.74612 19.5996 3.3447 19.9092 4.04693C19.9627 4.17325 20.0525 4.28082 20.1673 4.35594C20.2821 4.43106 20.4166 4.47035 20.5538 4.4688H22.9913L20.4131 7.04693Z" fill="#29367C"/>
<path d="M25.335 3.49614C25.2821 3.36855 25.1927 3.25937 25.0781 3.18226C24.9634 3.10515 24.8286 3.06351 24.6905 3.06255H20.9874C20.5297 2.22188 19.8564 1.51824 19.0367 1.02395C18.217 0.529655 17.2804 0.26254 16.3233 0.250051C14.8852 0.243799 13.5032 0.807497 12.4798 1.81778C11.4563 2.82805 10.8747 4.20263 10.8624 5.64068V6.66021C5.89361 5.47661 1.79205 1.43365 1.74518 1.39849C1.65483 1.3093 1.54203 1.24624 1.41874 1.216C1.29544 1.18575 1.16626 1.18945 1.0449 1.2267C0.92354 1.26395 0.814528 1.33336 0.729433 1.42756C0.644339 1.52177 0.586337 1.63726 0.561584 1.76177C-0.457948 7.3399 1.21783 11.0665 2.79986 13.211C3.63893 14.3593 4.66964 15.3543 5.84674 16.1524C4.03033 18.3555 1.04205 19.504 1.0069 19.5157C0.907054 19.5524 0.817043 19.6117 0.74387 19.689C0.670698 19.7662 0.616337 19.8593 0.585021 19.961C0.551768 20.0602 0.54187 20.1658 0.556098 20.2694C0.570327 20.3731 0.608298 20.4721 0.667052 20.5586C0.78424 20.7344 1.93268 22.2813 5.94049 22.2813C14.1085 22.2813 20.9405 15.9649 21.5967 7.85552L25.1827 4.25786C25.2843 4.16263 25.3536 4.03801 25.381 3.90143C25.4083 3.76485 25.3922 3.62314 25.335 3.49614ZM20.4131 7.04693C20.2912 7.16854 20.22 7.33188 20.2139 7.50396C19.7335 15.004 13.4639 20.8751 5.94049 20.8751C4.31158 20.8751 3.26862 20.5938 2.64752 20.3126C3.97174 19.6446 6.13971 18.3321 7.46393 16.3399C7.51668 16.2573 7.55218 16.1649 7.56829 16.0682C7.58441 15.9716 7.58079 15.8726 7.55768 15.7774C7.53269 15.6799 7.48742 15.5889 7.42482 15.5101C7.36222 15.4313 7.2837 15.3667 7.1944 15.3204C7.17096 15.3204 5.41315 14.4063 3.88971 12.3204C2.0733 9.83599 1.35846 6.80083 1.7569 3.29693C3.46783 4.75005 7.15924 7.49224 11.4483 8.20708C11.5493 8.22626 11.6532 8.22269 11.7526 8.19664C11.852 8.17059 11.9443 8.12271 12.0229 8.05649C12.1015 7.99027 12.1643 7.90737 12.2068 7.81381C12.2493 7.72026 12.2704 7.61841 12.2686 7.51568V5.64068C12.2779 4.5787 12.7071 3.56356 13.4624 2.817C14.2178 2.07045 15.2379 1.65316 16.2999 1.6563C17.0672 1.66738 17.8153 1.89855 18.4551 2.32233C19.0949 2.74612 19.5996 3.3447 19.9092 4.04693C19.9627 4.17325 20.0525 4.28082 20.1673 4.35594C20.2821 4.43106 20.4166 4.47035 20.5538 4.4688H22.9913L20.4131 7.04693Z" fill="white" fill-opacity="0.2"/>
<path d="M25.335 3.49614C25.2821 3.36855 25.1927 3.25937 25.0781 3.18226C24.9634 3.10515 24.8286 3.06351 24.6905 3.06255H20.9874C20.5297 2.22188 19.8564 1.51824 19.0367 1.02395C18.217 0.529655 17.2804 0.26254 16.3233 0.250051C14.8852 0.243799 13.5032 0.807497 12.4798 1.81778C11.4563 2.82805 10.8747 4.20263 10.8624 5.64068V6.66021C5.89361 5.47661 1.79205 1.43365 1.74518 1.39849C1.65483 1.3093 1.54203 1.24624 1.41874 1.216C1.29544 1.18575 1.16626 1.18945 1.0449 1.2267C0.92354 1.26395 0.814528 1.33336 0.729433 1.42756C0.644339 1.52177 0.586337 1.63726 0.561584 1.76177C-0.457948 7.3399 1.21783 11.0665 2.79986 13.211C3.63893 14.3593 4.66964 15.3543 5.84674 16.1524C4.03033 18.3555 1.04205 19.504 1.0069 19.5157C0.907054 19.5524 0.817043 19.6117 0.74387 19.689C0.670698 19.7662 0.616337 19.8593 0.585021 19.961C0.551768 20.0602 0.54187 20.1658 0.556098 20.2694C0.570327 20.3731 0.608298 20.4721 0.667052 20.5586C0.78424 20.7344 1.93268 22.2813 5.94049 22.2813C14.1085 22.2813 20.9405 15.9649 21.5967 7.85552L25.1827 4.25786C25.2843 4.16263 25.3536 4.03801 25.381 3.90143C25.4083 3.76485 25.3922 3.62314 25.335 3.49614ZM20.4131 7.04693C20.2912 7.16854 20.22 7.33188 20.2139 7.50396C19.7335 15.004 13.4639 20.8751 5.94049 20.8751C4.31158 20.8751 3.26862 20.5938 2.64752 20.3126C3.97174 19.6446 6.13971 18.3321 7.46393 16.3399C7.51668 16.2573 7.55218 16.1649 7.56829 16.0682C7.58441 15.9716 7.58079 15.8726 7.55768 15.7774C7.53269 15.6799 7.48742 15.5889 7.42482 15.5101C7.36222 15.4313 7.2837 15.3667 7.1944 15.3204C7.17096 15.3204 5.41315 14.4063 3.88971 12.3204C2.0733 9.83599 1.35846 6.80083 1.7569 3.29693C3.46783 4.75005 7.15924 7.49224 11.4483 8.20708C11.5493 8.22626 11.6532 8.22269 11.7526 8.19664C11.852 8.17059 11.9443 8.12271 12.0229 8.05649C12.1015 7.99027 12.1643 7.90737 12.2068 7.81381C12.2493 7.72026 12.2704 7.61841 12.2686 7.51568V5.64068C12.2779 4.5787 12.7071 3.56356 13.4624 2.817C14.2178 2.07045 15.2379 1.65316 16.2999 1.6563C17.0672 1.66738 17.8153 1.89855 18.4551 2.32233C19.0949 2.74612 19.5996 3.3447 19.9092 4.04693C19.9627 4.17325 20.0525 4.28082 20.1673 4.35594C20.2821 4.43106 20.4166 4.47035 20.5538 4.4688H22.9913L20.4131 7.04693Z" stroke="#545E96" stroke-width="0.5"/>
</svg>
