<svg width="44" height="27" viewBox="0 0 44 27" fill="none" xmlns="http://www.w3.org/2000/svg">
<path d="M15.7656 2.86572H27.4508V23.9337H15.7656V2.86572Z" fill="#FF5F00"/>
<path d="M16.5077 13.4002C16.5077 9.11962 18.5109 5.32283 21.5897 2.86607C19.3271 1.07942 16.4707 0 13.3547 0C5.97235 0 0 5.99276 0 13.4002C0 20.8074 5.97235 26.8003 13.3545 26.8003C16.4706 26.8003 19.3269 25.7209 21.5897 23.9341C18.5109 21.5146 16.5077 17.6807 16.5077 13.4002Z" fill="#EB001B"/>
<path d="M43.2147 13.4002C43.2147 20.8074 37.2424 26.8003 29.8602 26.8003C26.7442 26.8003 23.8878 25.7209 21.625 23.9341C24.741 21.4775 26.7072 17.6807 26.7072 13.4002C26.7072 9.11962 24.7039 5.32283 21.625 2.86607C23.8877 1.07942 26.7442 0 29.8602 0C37.2424 0 43.2149 6.03007 43.2149 13.4002H43.2147Z" fill="#F79E1B"/>
</svg>
