<svg xmlns="http://www.w3.org/2000/svg" width="26" height="24" fill="none" viewBox="0 0 26 24"><path fill="#2E2E2E" fill-rule="evenodd" d="M12.5961 1.27884C14.5973 0.0136831 17.2556 -0.335835 19.5521 0.400122C24.5475 2.01111 26.0981 7.45695 24.7111 11.7902C22.571 18.596 13.4306 23.6726 13.0429 23.8855C12.9051 23.9619 12.7524 24 12.5998 24C12.4472 24 12.2959 23.9631 12.158 23.888C11.7728 23.6776 2.69887 18.676 0.487303 11.7915C0.486073 11.7915 0.486073 11.7902 0.486073 11.7902C-0.902156 7.45572 0.643602 2.00865 5.63409 0.400122C7.97734 -0.357988 10.531 -0.0244686 12.5961 1.27884ZM6.20021 2.15756C2.16228 3.45964 1.14819 7.80278 2.24474 11.2278C3.97018 16.5961 10.787 20.9368 12.5986 22.0112C14.4164 20.9257 21.2824 16.537 22.9525 11.2327C24.049 7.80401 23.0312 3.46087 18.9872 2.15756C17.0279 1.52867 14.7425 1.91142 13.1647 3.13227C12.8349 3.3858 12.3771 3.39072 12.0448 3.13966C10.3735 1.88311 8.19025 1.51514 6.20021 2.15756Z" clip-rule="evenodd"/></svg>