<svg width="18" height="19" viewBox="0 0 18 19" fill="none" xmlns="http://www.w3.org/2000/svg">
<path fill-rule="evenodd" clip-rule="evenodd" d="M8.66002 0.200012C13.3247 0.200012 17.119 4.02494 17.119 8.72729C17.119 10.9458 16.2744 12.9693 14.8923 14.4879L17.6119 17.2237C17.8664 17.4802 17.8672 17.8953 17.6127 18.1519C17.4859 18.2815 17.3182 18.3454 17.1515 18.3454C16.9856 18.3454 16.8188 18.2815 16.6911 18.1536L13.9387 15.3868C12.4908 16.5556 10.655 17.2554 8.66002 17.2554C3.99535 17.2554 0.200195 13.4296 0.200195 8.72729C0.200195 4.02494 3.99535 0.200012 8.66002 0.200012ZM8.66002 1.51352C4.71372 1.51352 1.50318 4.74912 1.50318 8.72729C1.50318 12.7055 4.71372 15.9419 8.66002 15.9419C12.6055 15.9419 15.816 12.7055 15.816 8.72729C15.816 4.74912 12.6055 1.51352 8.66002 1.51352Z" fill="#717288" stroke="#717288" stroke-width="0.4"/>
</svg>
