<svg xmlns="http://www.w3.org/2000/svg" width="25" height="24" fill="none" viewBox="0 0 25 24"><path fill="#2E2E2E" fill-rule="evenodd" d="M6.3298 20.8202C7.20673 20.8202 7.92031 21.5326 7.92031 22.4095C7.92031 23.2864 7.20673 24 6.3298 24C5.45287 24 4.74052 23.2864 4.74052 22.4095C4.74052 21.5326 5.45287 20.8202 6.3298 20.8202ZM20.1842 20.8202C21.0624 20.8202 21.7759 21.5326 21.7759 22.4095C21.7759 23.2864 21.0624 24 20.1842 24C19.3073 24 18.5949 23.2864 18.5949 22.4095C18.5949 21.5326 19.3073 20.8202 20.1842 20.8202ZM1.07829 0.0116519L3.63293 0.453802C4.04438 0.526265 4.35756 0.867703 4.39318 1.28529L4.68181 4.72546L5.75507 4.72592C5.9302 4.726 6.10348 4.72608 6.27492 4.72615L8.24532 4.72709C8.40238 4.72717 8.55769 4.72725 8.71126 4.72733L10.8869 4.72852C11.0235 4.7286 11.1586 4.72868 11.292 4.72876L12.8166 4.72973C12.9374 4.72982 13.0566 4.7299 13.1744 4.72998L14.5153 4.73097C14.6212 4.73105 14.7256 4.73113 14.8286 4.73122L15.9978 4.73222C16.0898 4.73231 16.1804 4.73239 16.2697 4.73247L17.0381 4.73324C17.1197 4.73332 17.1999 4.73341 17.279 4.7335L18.1689 4.73453C18.2383 4.73461 18.3065 4.7347 18.3736 4.73479L19.125 4.73584C19.1832 4.73593 19.2404 4.73601 19.2965 4.7361L19.7741 4.7369C19.8241 4.73699 19.8732 4.73708 19.9212 4.73717L20.4532 4.73825C20.4939 4.73834 20.5336 4.73843 20.5726 4.73852L20.9 4.73934C20.9338 4.73943 20.9669 4.73952 20.9992 4.73961L21.3502 4.74072C21.3765 4.74081 21.4021 4.7409 21.427 4.741L21.6331 4.74184C21.654 4.74193 21.6743 4.74202 21.694 4.74212L21.9025 4.74325C21.9176 4.74335 21.9322 4.74344 21.9463 4.74354L22.06 4.7444C22.0712 4.7445 22.0819 4.74459 22.0923 4.74469L22.174 4.74556C22.1819 4.74566 22.1895 4.74576 22.1967 4.74586L22.2523 4.74674C22.2576 4.74684 22.2625 4.74693 22.2672 4.74703L22.3024 4.74792C22.3056 4.74802 22.3086 4.74812 22.3114 4.74822L22.3369 4.74942C22.3385 4.74953 22.3399 4.74963 22.3413 4.74973C22.3532 4.75084 22.355 4.75105 22.3567 4.75125C23.0408 4.85074 23.6427 5.20814 24.0529 5.75837C24.4631 6.30737 24.635 6.98411 24.5368 7.66207L23.3712 15.7166C23.1514 17.2494 21.82 18.4051 20.2725 18.4051H6.8594C5.24186 18.4051 3.87243 17.1425 3.74101 15.5274L2.61599 2.14748L0.765097 1.82815C0.262766 1.73972 -0.0725309 1.26441 0.0134426 0.762078C0.101873 0.259747 0.587009 -0.0669525 1.07829 0.0116519ZM5.50867 6.56817L4.83656 6.56775L5.57716 15.3764C5.6312 16.0543 6.18512 16.5628 6.86185 16.5628H20.27C20.9099 16.5628 21.4565 16.0863 21.5474 15.4537L22.7142 7.39801C22.7412 7.20641 22.6933 7.01481 22.5766 6.86006C22.4611 6.70408 22.2917 6.60337 22.1001 6.57635C22.0912 6.57669 22.07 6.577 22.037 6.57728L21.9034 6.57804C21.8755 6.57816 21.8448 6.57826 21.8113 6.57837L21.1155 6.57942C21.0568 6.57946 20.9958 6.5795 20.9325 6.57953L19.2966 6.57946C19.2053 6.57943 19.1123 6.57939 19.0176 6.57935L17.1506 6.57822C17.0388 6.57813 16.9257 6.57805 16.8115 6.57796L15.7551 6.57712C15.6347 6.57702 15.5135 6.57691 15.3914 6.57681L14.2725 6.57583C14.1461 6.57571 14.0191 6.5756 13.8916 6.57548L13.1208 6.57477C12.9915 6.57465 12.8618 6.57453 12.7318 6.57441L11.5555 6.57331C11.4244 6.57319 11.2931 6.57307 11.1619 6.57294L10.3751 6.57221C10.2441 6.57209 10.1133 6.57197 9.98275 6.57185L9.20259 6.57114C9.07321 6.57103 8.9442 6.57091 8.81565 6.5708L7.6728 6.56981C7.54762 6.56971 7.42311 6.56961 7.29935 6.56951L5.85509 6.56841C5.73854 6.56833 5.62304 6.56825 5.50867 6.56817ZM18.2974 9.26523C18.8059 9.26523 19.2186 9.67791 19.2186 10.1864C19.2186 10.6949 18.8059 11.1075 18.2974 11.1075H14.8929C14.3832 11.1075 13.9717 10.6949 13.9717 10.1864C13.9717 9.67791 14.3832 9.26523 14.8929 9.26523H18.2974Z" clip-rule="evenodd"/></svg>